<svg xmlns="http://www.w3.org/2000/svg" width="2600" height="1600"><path d="M1080,-790L1881,-777L2381,-773Z" fill="#acd8e1" stroke="#acd8e1" stroke-width="1.51"/><path d="M2293,2221L1056,2210L2667,2287Z" fill="#2b78ae" stroke="#2b78ae" stroke-width="1.51"/><path d="M1056,2210L-163,2272L2667,2287Z" fill="#568ca9" stroke="#568ca9" stroke-width="1.51"/><path d="M2763,1274L2960,1558L3228,1101Z" fill="#2e7fb4" stroke="#2e7fb4" stroke-width="1.51"/><path d="M3086,428L2795,829L3228,1101Z" fill="#528fae" stroke="#528fae" stroke-width="1.51"/><path d="M3039,1896L3161,2178L3228,1101Z" fill="#1966a3" stroke="#1966a3" stroke-width="1.51"/><path d="M2960,1558L3039,1896L3228,1101Z" fill="#2372ab" stroke="#2372ab" stroke-width="1.51"/><path d="M2711,-39L3033,337L3260,-240Z" fill="#7d9db0" stroke="#7d9db0" stroke-width="1.51"/><path d="M3033,337L3086,428L3260,-240Z" fill="#7495a8" stroke="#7495a8" stroke-width="1.51"/><path d="M3086,428L3228,1101L3260,-240Z" fill="#688ea1" stroke="#688ea1" stroke-width="1.51"/><path d="M2381,-773L2771,-563L3265,-578Z" fill="#92adca" stroke="#92adca" stroke-width="1.51"/><path d="M2771,-563L3260,-240L3265,-578Z" fill="#879db9" stroke="#879db9" stroke-width="1.51"/><path d="M2771,-563L2711,-39L3260,-240Z" fill="#86a4bc" stroke="#86a4bc" stroke-width="1.51"/><path d="M2795,829L2763,1274L3228,1101Z" fill="#408bb8" stroke="#408bb8" stroke-width="1.51"/><path d="M3039,1896L2667,2287L3161,2178Z" fill="#095b9e" stroke="#095b9e" stroke-width="1.51"/><path d="M2960,1558L2771,1682L3039,1896Z" fill="#1970ad" stroke="#1970ad" stroke-width="1.51"/><path d="M3033,337L2673,731L3086,428Z" fill="#6798ae" stroke="#6798ae" stroke-width="1.51"/><path d="M2673,731L2795,829L3086,428Z" fill="#5d99b4" stroke="#5d99b4" stroke-width="1.51"/><path d="M2443,264L2673,731L3033,337Z" fill="#6ea2b4" stroke="#6ea2b4" stroke-width="1.51"/><path d="M2542,150L2443,264L3033,337Z" fill="#79a7b7" stroke="#79a7b7" stroke-width="1.51"/><path d="M2711,-39L2542,150L3033,337Z" fill="#7ca6b7" stroke="#7ca6b7" stroke-width="1.51"/><path d="M2771,1682L2667,2287L3039,1896Z" fill="#0c69ac" stroke="#0c69ac" stroke-width="1.51"/><path d="M1947,2098L1056,2210L2293,2221Z" fill="#3684b5" stroke="#3684b5" stroke-width="1.51"/><path d="M2763,1274L2771,1682L2960,1558Z" fill="#247db6" stroke="#247db6" stroke-width="1.51"/><path d="M2456,-174L2711,-39L2771,-563Z" fill="#8bafc4" stroke="#8bafc4" stroke-width="1.51"/><path d="M2293,2221L2667,2287L2771,1682Z" fill="#146cac" stroke="#146cac" stroke-width="1.51"/><path d="M2221,1726L2293,2221L2771,1682Z" fill="#1f7bb6" stroke="#1f7bb6" stroke-width="1.51"/><path d="M2763,1274L2160,1528L2771,1682Z" fill="#2b87bc" stroke="#2b87bc" stroke-width="1.51"/><path d="M2160,1528L2221,1726L2771,1682Z" fill="#2887bc" stroke="#2887bc" stroke-width="1.51"/><path d="M2272,992L2763,1274L2795,829Z" fill="#4698c0" stroke="#4698c0" stroke-width="1.51"/><path d="M2673,731L2272,992L2795,829Z" fill="#539fbd" stroke="#539fbd" stroke-width="1.51"/><path d="M2381,-773L2456,-174L2771,-563Z" fill="#93b6cc" stroke="#93b6cc" stroke-width="1.51"/><path d="M2443,264L2243,608L2673,731Z" fill="#6cabba" stroke="#6cabba" stroke-width="1.51"/><path d="M2272,992L2160,1528L2763,1274Z" fill="#3999c5" stroke="#3999c5" stroke-width="1.51"/><path d="M2456,-174L2542,150L2711,-39Z" fill="#86afbe" stroke="#86afbe" stroke-width="1.51"/><path d="M2243,608L2272,992L2673,731Z" fill="#5ba8bf" stroke="#5ba8bf" stroke-width="1.51"/><path d="M2381,-773L1745,-333L2456,-174Z" fill="#97c3d0" stroke="#97c3d0" stroke-width="1.51"/><path d="M2456,-174L2443,264L2542,150Z" fill="#83b2be" stroke="#83b2be" stroke-width="1.51"/><path d="M1958,1216L2160,1528L2272,992Z" fill="#42a3cb" stroke="#42a3cb" stroke-width="1.51"/><path d="M1881,-777L1745,-333L2381,-773Z" fill="#a2cdd9" stroke="#a2cdd9" stroke-width="1.51"/><path d="M1829,132L2443,264L2456,-174Z" fill="#88bbc2" stroke="#88bbc2" stroke-width="1.51"/><path d="M1745,-333L1829,132L2456,-174Z" fill="#94c7cc" stroke="#94c7cc" stroke-width="1.51"/><path d="M2221,1726L1947,2098L2293,2221Z" fill="#267eb7" stroke="#267eb7" stroke-width="1.51"/><path d="M1866,522L2243,608L2443,264Z" fill="#75b7be" stroke="#75b7be" stroke-width="1.51"/><path d="M1829,132L1866,522L2443,264Z" fill="#82bfc2" stroke="#82bfc2" stroke-width="1.51"/><path d="M1840,1904L1947,2098L2221,1726Z" fill="#2f89bd" stroke="#2f89bd" stroke-width="1.51"/><path d="M1953,1036L1958,1216L2272,992Z" fill="#4faccc" stroke="#4faccc" stroke-width="1.51"/><path d="M2243,608L1953,1036L2272,992Z" fill="#59afc6" stroke="#59afc6" stroke-width="1.51"/><path d="M1866,522L1953,1036L2243,608Z" fill="#68b8c6" stroke="#68b8c6" stroke-width="1.51"/><path d="M1372,2003L1056,2210L1947,2098Z" fill="#4a8fb5" stroke="#4a8fb5" stroke-width="1.51"/><path d="M2160,1528L1840,1904L2221,1726Z" fill="#318fc1" stroke="#318fc1" stroke-width="1.51"/><path d="M1958,1216L1607,1301L2160,1528Z" fill="#45a7cd" stroke="#45a7cd" stroke-width="1.51"/><path d="M1607,1301L1840,1904L2160,1528Z" fill="#3d9ec8" stroke="#3d9ec8" stroke-width="1.51"/><path d="M1745,-333L1578,-263L1829,132Z" fill="#9dd2cf" stroke="#9dd2cf" stroke-width="1.51"/><path d="M1607,1301L1310,1659L1840,1904Z" fill="#4ba4c5" stroke="#4ba4c5" stroke-width="1.51"/><path d="M1829,132L1629,240L1866,522Z" fill="#88cac6" stroke="#88cac6" stroke-width="1.51"/><path d="M1499,-469L1745,-333L1881,-777Z" fill="#a7d7d9" stroke="#a7d7d9" stroke-width="1.51"/><path d="M1866,522L1618,880L1953,1036Z" fill="#66becb" stroke="#66becb" stroke-width="1.51"/><path d="M1618,880L1607,1301L1953,1036Z" fill="#5bb9d0" stroke="#5bb9d0" stroke-width="1.51"/><path d="M1953,1036L1607,1301L1958,1216Z" fill="#4eb2d2" stroke="#4eb2d2" stroke-width="1.51"/><path d="M1840,1904L1372,2003L1947,2098Z" fill="#3b8ebf" stroke="#3b8ebf" stroke-width="1.51"/><path d="M1080,-790L1499,-469L1881,-777Z" fill="#b3deda" stroke="#b3deda" stroke-width="1.51"/><path d="M1578,-263L1629,240L1829,132Z" fill="#99d1ca" stroke="#99d1ca" stroke-width="1.51"/><path d="M1629,240L1316,691L1866,522Z" fill="#84cbc3" stroke="#84cbc3" stroke-width="1.51"/><path d="M1316,691L1618,880L1866,522Z" fill="#77c6c7" stroke="#77c6c7" stroke-width="1.51"/><path d="M1310,1659L1372,2003L1840,1904Z" fill="#4b9bbf" stroke="#4b9bbf" stroke-width="1.51"/><path d="M1578,-263L1269,129L1629,240Z" fill="#9ed6c7" stroke="#9ed6c7" stroke-width="1.51"/><path d="M1499,-469L1578,-263L1745,-333Z" fill="#a5d7d3" stroke="#a5d7d3" stroke-width="1.51"/><path d="M1260,1305L1310,1659L1607,1301Z" fill="#5cb2c7" stroke="#5cb2c7" stroke-width="1.51"/><path d="M1260,1305L1607,1301L1618,880Z" fill="#60bbce" stroke="#60bbce" stroke-width="1.51"/><path d="M1316,691L1260,1305L1618,880Z" fill="#70c4c9" stroke="#70c4c9" stroke-width="1.51"/><path d="M1162,443L1316,691L1629,240Z" fill="#8dd1bf" stroke="#8dd1bf" stroke-width="1.51"/><path d="M1269,129L1162,443L1629,240Z" fill="#98d5c0" stroke="#98d5c0" stroke-width="1.51"/><path d="M1499,-469L1014,-152L1578,-263Z" fill="#abddce" stroke="#abddce" stroke-width="1.51"/><path d="M1014,-152L1269,129L1578,-263Z" fill="#a9dcc7" stroke="#a9dcc7" stroke-width="1.51"/><path d="M939,945L1260,1305L1316,691Z" fill="#79c8c6" stroke="#79c8c6" stroke-width="1.51"/><path d="M1080,-790L1014,-152L1499,-469Z" fill="#b6e2d0" stroke="#b6e2d0" stroke-width="1.51"/><path d="M742,2066L-163,2272L1056,2210Z" fill="#7599ac" stroke="#7599ac" stroke-width="1.51"/><path d="M-274,-798L654,-583L1080,-790Z" fill="#d9f0d5" stroke="#d9f0d5" stroke-width="1.51"/><path d="M1310,1659L930,1950L1372,2003Z" fill="#5ca0ba" stroke="#5ca0ba" stroke-width="1.51"/><path d="M930,1950L1056,2210L1372,2003Z" fill="#5d98b3" stroke="#5d98b3" stroke-width="1.51"/><path d="M126,2081L-163,2272L742,2066Z" fill="#809fb4" stroke="#809fb4" stroke-width="1.51"/><path d="M1260,1305L703,1254L1310,1659Z" fill="#6db9c3" stroke="#6db9c3" stroke-width="1.51"/><path d="M703,1254L930,1950L1310,1659Z" fill="#6dafbd" stroke="#6dafbd" stroke-width="1.51"/><path d="M1162,443L806,687L1316,691Z" fill="#91d3be" stroke="#91d3be" stroke-width="1.51"/><path d="M806,687L939,945L1316,691Z" fill="#8ad1c0" stroke="#8ad1c0" stroke-width="1.51"/><path d="M654,-583L1014,-152L1080,-790Z" fill="#c3e7cd" stroke="#c3e7cd" stroke-width="1.51"/><path d="M939,945L703,1254L1260,1305Z" fill="#7cc6c6" stroke="#7cc6c6" stroke-width="1.51"/><path d="M838,-40L1162,443L1269,129Z" fill="#a6dcbe" stroke="#a6dcbe" stroke-width="1.51"/><path d="M1014,-152L838,-40L1269,129Z" fill="#b1e0c1" stroke="#b1e0c1" stroke-width="1.51"/><path d="M703,1254L733,1970L930,1950Z" fill="#75aeb8" stroke="#75aeb8" stroke-width="1.51"/><path d="M838,-40L806,687L1162,443Z" fill="#a4dbb8" stroke="#a4dbb8" stroke-width="1.51"/><path d="M351,443L806,687L838,-40Z" fill="#afe0b7" stroke="#afe0b7" stroke-width="1.51"/><path d="M500,1L351,443L838,-40Z" fill="#bde5be" stroke="#bde5be" stroke-width="1.51"/><path d="M654,-583L838,-40L1014,-152Z" fill="#bfe6c4" stroke="#bfe6c4" stroke-width="1.51"/><path d="M930,1950L742,2066L1056,2210Z" fill="#689aaf" stroke="#689aaf" stroke-width="1.51"/><path d="M-274,-798L197,-511L654,-583Z" fill="#dff3d8" stroke="#dff3d8" stroke-width="1.51"/><path d="M703,1254L299,1620L733,1970Z" fill="#7fb6be" stroke="#7fb6be" stroke-width="1.51"/><path d="M654,-583L500,1L838,-40Z" fill="#c4e8c4" stroke="#c4e8c4" stroke-width="1.51"/><path d="M733,1970L742,2066L930,1950Z" fill="#6fa0b2" stroke="#6fa0b2" stroke-width="1.51"/><path d="M806,687L639,1007L939,945Z" fill="#90d2be" stroke="#90d2be" stroke-width="1.51"/><path d="M639,1007L703,1254L939,945Z" fill="#8accc2" stroke="#8accc2" stroke-width="1.51"/><path d="M333,1335L299,1620L703,1254Z" fill="#8bc2c5" stroke="#8bc2c5" stroke-width="1.51"/><path d="M227,-149L500,1L654,-583Z" fill="#cdecc9" stroke="#cdecc9" stroke-width="1.51"/><path d="M394,902L639,1007L806,687Z" fill="#98d5c1" stroke="#98d5c1" stroke-width="1.51"/><path d="M351,443L394,902L806,687Z" fill="#a4dbbf" stroke="#a4dbbf" stroke-width="1.51"/><path d="M197,-511L227,-149L654,-583Z" fill="#d5eecf" stroke="#d5eecf" stroke-width="1.51"/><path d="M733,1970L126,2081L742,2066Z" fill="#78a1b4" stroke="#78a1b4" stroke-width="1.51"/><path d="M299,1620L126,2081L733,1970Z" fill="#81abbb" stroke="#81abbb" stroke-width="1.51"/><path d="M639,1007L333,1335L703,1254Z" fill="#8dcbc9" stroke="#8dcbc9" stroke-width="1.51"/><path d="M245,79L351,443L500,1Z" fill="#c2e7c0" stroke="#c2e7c0" stroke-width="1.51"/><path d="M394,902L333,1335L639,1007Z" fill="#95d0c8" stroke="#95d0c8" stroke-width="1.51"/><path d="M227,-149L245,79L500,1Z" fill="#ccebc5" stroke="#ccebc5" stroke-width="1.51"/><path d="M245,79L-24,145L351,443Z" fill="#c4e8c3" stroke="#c4e8c3" stroke-width="1.51"/><path d="M-42,1163L333,1335L394,902Z" fill="#9bd1cd" stroke="#9bd1cd" stroke-width="1.51"/><path d="M351,443L-105,540L394,902Z" fill="#b0e0c4" stroke="#b0e0c4" stroke-width="1.51"/><path d="M-105,540L-42,1163L394,902Z" fill="#a8dbcb" stroke="#a8dbcb" stroke-width="1.51"/><path d="M-200,1920L126,2081L299,1620Z" fill="#89aec2" stroke="#89aec2" stroke-width="1.51"/><path d="M-50,1463L299,1620L333,1335Z" fill="#90c1c8" stroke="#90c1c8" stroke-width="1.51"/><path d="M-24,145L-105,540L351,443Z" fill="#c0e7c2" stroke="#c0e7c2" stroke-width="1.51"/><path d="M-42,1163L-50,1463L333,1335Z" fill="#97cacf" stroke="#97cacf" stroke-width="1.51"/><path d="M197,-511L-110,-399L227,-149Z" fill="#d9f0d3" stroke="#d9f0d3" stroke-width="1.51"/><path d="M-50,1463L-200,1920L299,1620Z" fill="#8eb9c7" stroke="#8eb9c7" stroke-width="1.51"/><path d="M227,-149L-24,145L245,79Z" fill="#ceecc8" stroke="#ceecc8" stroke-width="1.51"/><path d="M-274,-798L-110,-399L197,-511Z" fill="#e3f4dc" stroke="#e3f4dc" stroke-width="1.51"/><path d="M-110,-399L-24,145L227,-149Z" fill="#d5efce" stroke="#d5efce" stroke-width="1.51"/><path d="M-105,540L-302,1108L-42,1163Z" fill="#aadad1" stroke="#aadad1" stroke-width="1.51"/><path d="M-200,1920L-163,2272L126,2081Z" fill="#87a4bd" stroke="#87a4bd" stroke-width="1.51"/><path d="M-400,431L-302,1108L-105,540Z" fill="#b7e3cf" stroke="#b7e3cf" stroke-width="1.51"/><path d="M-671,1573L-200,1920L-50,1463Z" fill="#95bcce" stroke="#95bcce" stroke-width="1.51"/><path d="M-302,1108L-50,1463L-42,1163Z" fill="#9dd0d5" stroke="#9dd0d5" stroke-width="1.51"/><path d="M-587,123L-400,431L-24,145Z" fill="#cfecce" stroke="#cfecce" stroke-width="1.51"/><path d="M-110,-399L-554,-285L-24,145Z" fill="#dbf2d5" stroke="#dbf2d5" stroke-width="1.51"/><path d="M-554,-285L-587,123L-24,145Z" fill="#dbf1d4" stroke="#dbf1d4" stroke-width="1.51"/><path d="M-400,431L-105,540L-24,145Z" fill="#c5e9c8" stroke="#c5e9c8" stroke-width="1.51"/><path d="M-302,1108L-671,1573L-50,1463Z" fill="#9dcbd5" stroke="#9dcbd5" stroke-width="1.51"/><path d="M-200,1920L-451,2109L-163,2272Z" fill="#8aa5c0" stroke="#8aa5c0" stroke-width="1.51"/><path d="M-274,-798L-544,-609L-110,-399Z" fill="#e9f7e3" stroke="#e9f7e3" stroke-width="1.51"/><path d="M-544,-609L-554,-285L-110,-399Z" fill="#e6f6e0" stroke="#e6f6e0" stroke-width="1.51"/><path d="M-671,1573L-612,1935L-200,1920Z" fill="#96b6cf" stroke="#96b6cf" stroke-width="1.51"/><path d="M-612,1935L-451,2109L-200,1920Z" fill="#90adc9" stroke="#90adc9" stroke-width="1.51"/><path d="M-400,431L-671,1573L-302,1108Z" fill="#addada" stroke="#addada" stroke-width="1.51"/><path d="M-587,123L-671,1573L-400,431Z" fill="#bde5d5" stroke="#bde5d5" stroke-width="1.51"/><path d="M-587,123L-554,-285L-544,-609Z" fill="#e5f5de" stroke="#e5f5de" stroke-width="1.51"/></svg>